<svg width="21" height="21" viewBox="0 0 21 21" fill="none" xmlns="http://www.w3.org/2000/svg">
<path fill-rule="evenodd" clip-rule="evenodd" d="M10.4492 0H10.5508C11.4289 0 12.1605 4.36639e-08 12.7407 0.0781396C13.354 0.160186 13.9079 0.341861 14.3523 0.786279C14.7977 1.23167 14.9793 1.78549 15.0614 2.39791C15.12 2.82767 15.1347 3.33949 15.1386 3.9314C15.7715 3.95191 16.336 3.99 16.8381 4.05642C17.9828 4.21074 18.9098 4.53502 19.6413 5.26563C20.372 5.99721 20.6962 6.92414 20.8506 8.06888C21 9.18237 21 10.6035 21 12.3988V12.5082C21 14.3034 21 15.7256 20.8506 16.8381C20.6962 17.9828 20.372 18.9098 19.6413 19.6413C18.9098 20.372 17.9828 20.6962 16.8381 20.8506C15.7246 21 14.3034 21 12.5082 21H8.49181C6.69656 21 5.27442 21 4.16191 20.8506C3.01716 20.6962 2.09023 20.372 1.35865 19.6413C0.628047 18.9098 0.303767 17.9828 0.149442 16.8381C0 15.7246 0 14.3034 0 12.5082V12.3988C0 10.6035 0 9.1814 0.149442 8.06888C0.303767 6.92414 0.628047 5.99721 1.35865 5.26563C2.09023 4.53502 3.01716 4.21074 4.16191 4.05642C4.72599 3.98658 5.29321 3.94485 5.86144 3.9314C5.86535 3.33949 5.88098 2.82767 5.9386 2.39791C6.02065 1.78549 6.20233 1.23167 6.64674 0.786279C7.09214 0.341861 7.64595 0.161163 8.25837 0.0781396C8.83953 4.36639e-08 9.57209 0 10.4492 0ZM7.32753 3.90893C7.69674 3.90698 8.08451 3.90698 8.49181 3.90698H12.5082C12.9155 3.90698 13.3033 3.90698 13.6725 3.90893C13.6686 3.35219 13.6549 2.93219 13.61 2.59326C13.5484 2.14298 13.4439 1.94958 13.3169 1.8226C13.19 1.69563 12.9966 1.59112 12.5453 1.52958C12.0745 1.46707 11.4416 1.46512 10.5 1.46512C9.55842 1.46512 8.92549 1.46707 8.45372 1.53056C8.00344 1.59112 7.81005 1.69563 7.68307 1.82358C7.55609 1.95056 7.45158 2.14298 7.39005 2.59326C7.34512 2.93121 7.33144 3.35121 7.32753 3.90893ZM4.35628 5.50884C3.37367 5.6407 2.80716 5.88879 2.39302 6.30195C1.98084 6.71512 1.73274 7.28163 1.60088 8.26423C1.46609 9.26735 1.46414 10.5908 1.46414 12.4535C1.46414 14.3161 1.46609 15.6396 1.60088 16.6437C1.73274 17.6254 1.98084 18.1919 2.394 18.605C2.80716 19.0182 3.37367 19.2663 4.35628 19.3981C5.36037 19.5329 6.68288 19.5349 8.54553 19.5349H12.4525C14.3152 19.5349 15.6387 19.5329 16.6427 19.3981C17.6244 19.2663 18.1909 19.0182 18.604 18.605C19.0172 18.1919 19.2653 17.6253 19.3972 16.6427C19.532 15.6396 19.5339 14.3161 19.5339 12.4535C19.5339 10.5908 19.532 9.26833 19.3972 8.26326C19.2653 7.28163 19.0172 6.71512 18.604 6.30195C18.1909 5.88879 17.6244 5.6407 16.6418 5.50884C15.6387 5.37405 14.3152 5.37209 12.4525 5.37209H8.54553C6.68288 5.37209 5.36135 5.37405 4.35628 5.50884Z" fill="#737373"/>
<path d="M11.0977 15C10.3989 15 9.80065 14.799 9.30304 14.397C8.80566 13.9953 8.46084 13.4847 8.26855 12.8655H7.00036V12.4905H8.19609C8.16855 12.3452 8.15635 12.1798 8.15949 11.994C8.16263 11.8083 8.17471 11.6468 8.19572 11.5095H7V11.1345H8.28269C8.47014 10.5155 8.81146 10.005 9.30666 9.603C9.80186 9.201 10.3988 9 11.0973 9C11.4585 9 11.8003 9.061 12.1228 9.183C12.4453 9.305 12.7375 9.47375 12.9996 9.68925L12.7413 9.94762C12.5133 9.76687 12.26 9.62625 11.9815 9.52575C11.7029 9.42525 11.4082 9.375 11.0973 9.375C10.4959 9.375 9.98472 9.54413 9.56392 9.88238C9.14312 10.2206 8.84395 10.6381 8.66641 11.1349H11.0557V11.5099H8.56749C8.5385 11.6594 8.52473 11.8281 8.52618 12.0161C8.52763 12.2041 8.5414 12.3622 8.56749 12.4905H11.0557V12.8655H8.65952C8.84142 13.362 9.14288 13.7794 9.56392 14.1176C9.98496 14.4559 10.4962 14.625 11.0977 14.625C11.4084 14.625 11.7029 14.5747 11.9815 14.4742C12.26 14.3737 12.5133 14.2331 12.7413 14.0524L13 14.3108C12.7379 14.5265 12.4456 14.6952 12.1231 14.817C11.8007 14.9387 11.4588 14.9998 11.0977 15Z" fill="#737373" stroke="#737373" stroke-width="0.5"/>
</svg>
